<svg xmlns="http://www.w3.org/2000/svg" width="600" height="600" viewBox="0 0 600 600">
  <!-- Background -->
  <rect width="100%" height="100%" fill="black"/>

  <!-- Outer circle guide -->
  <circle cx="300" cy="300" r="260" fill="none" stroke="#444" stroke-width="2"/>

  <!-- Beaded border -->
  <g id="beads" fill="#c0c0c0">
    <!-- 60 beads evenly spaced around the circle -->
    <!-- Adjust bead count, color, and radius to match the original -->
    <g>
      <!-- Use small circles rotated around center -->
      <!-- r_bead_path = 260, bead radius = 8 -->
      <!-- Generate positions -->
      <!-- (For manual fine-tuning, increase/decrease count or bead radius) -->
      <!-- Beads via angles -->
      <!-- You can script-generate these, but here’s a static set -->
      <!-- 60 beads at 6-degree increments -->
      <!-- We’ll use a path and marker trick for compactness -->
      <defs>
        <circle id="bead" cx="0" cy="0" r="8"/>
      </defs>
      <g>
        <!-- Place beads using transforms -->
        <!-- Angles 0..354 step 6 -->
        <!-- You can adjust r=260 to push beads inward/outward -->
        <!-- First half -->
        <g transform="translate(300,300)">
          <!-- Generate beads -->
          <!-- Note: For brevity, only 30 shown; duplicate with angle+180 for full ring -->
          <!-- If you want full 60, duplicate these lines with +180 deg -->
          <g>
            <use href="#bead" transform="rotate(0) translate(260,0)"/>
            <use href="#bead" transform="rotate(6) translate(260,0)"/>
            <use href="#bead" transform="rotate(12) translate(260,0)"/>
            <use href="#bead" transform="rotate(18) translate(260,0)"/>
            <use href="#bead" transform="rotate(24) translate(260,0)"/>
            <use href="#bead" transform="rotate(30) translate(260,0)"/>
            <use href="#bead" transform="rotate(36) translate(260,0)"/>
            <use href="#bead" transform="rotate(42) translate(260,0)"/>
            <use href="#bead" transform="rotate(48) translate(260,0)"/>
            <use href="#bead" transform="rotate(54) translate(260,0)"/>
            <use href="#bead" transform="rotate(60) translate(260,0)"/>
            <use href="#bead" transform="rotate(66) translate(260,0)"/>
            <use href="#bead" transform="rotate(72) translate(260,0)"/>
            <use href="#bead" transform="rotate(78) translate(260,0)"/>
            <use href="#bead" transform="rotate(84) translate(260,0)"/>
            <use href="#bead" transform="rotate(90) translate(260,0)"/>
            <use href="#bead" transform="rotate(96) translate(260,0)"/>
            <use href="#bead" transform="rotate(102) translate(260,0)"/>
            <use href="#bead" transform="rotate(108) translate(260,0)"/>
            <use href="#bead" transform="rotate(114) translate(260,0)"/>
            <use href="#bead" transform="rotate(120) translate(260,0)"/>
            <use href="#bead" transform="rotate(126) translate(260,0)"/>
            <use href="#bead" transform="rotate(132) translate(260,0)"/>
            <use href="#bead" transform="rotate(138) translate(260,0)"/>
            <use href="#bead" transform="rotate(144) translate(260,0)"/>
            <use href="#bead" transform="rotate(150) translate(260,0)"/>
            <use href="#bead" transform="rotate(156) translate(260,0)"/>
            <use href="#bead" transform="rotate(162) translate(260,0)"/>
            <use href="#bead" transform="rotate(168) translate(260,0)"/>
            <use href="#bead" transform="rotate(174) translate(260,0)"/>
            <!-- Second half (add +180deg duplicates) -->
            <use href="#bead" transform="rotate(180) translate(260,0)"/>
            <use href="#bead" transform="rotate(186) translate(260,0)"/>
            <use href="#bead" transform="rotate(192) translate(260,0)"/>
            <use href="#bead" transform="rotate(198) translate(260,0)"/>
            <use href="#bead" transform="rotate(204) translate(260,0)"/>
            <use href="#bead" transform="rotate(210) translate(260,0)"/>
            <use href="#bead" transform="rotate(216) translate(260,0)"/>
            <use href="#bead" transform="rotate(222) translate(260,0)"/>
            <use href="#bead" transform="rotate(228) translate(260,0)"/>
            <use href="#bead" transform="rotate(234) translate(260,0)"/>
            <use href="#bead" transform="rotate(240) translate(260,0)"/>
            <use href="#bead" transform="rotate(246) translate(260,0)"/>
            <use href="#bead" transform="rotate(252) translate(260,0)"/>
            <use href="#bead" transform="rotate(258) translate(260,0)"/>
            <use href="#bead" transform="rotate(264) translate(260,0)"/>
            <use href="#bead" transform="rotate(270) translate(260,0)"/>
            <use href="#bead" transform="rotate(276) translate(260,0)"/>
            <use href="#bead" transform="rotate(282) translate(260,0)"/>
            <use href="#bead" transform="rotate(288) translate(260,0)"/>
            <use href="#bead" transform="rotate(294) translate(260,0)"/>
            <use href="#bead" transform="rotate(300) translate(260,0)"/>
            <use href="#bead" transform="rotate(306) translate(260,0)"/>
            <use href="#bead" transform="rotate(312) translate(260,0)"/>
            <use href="#bead" transform="rotate(318) translate(260,0)"/>
            <use href="#bead" transform="rotate(324) translate(260,0)"/>
            <use href="#bead" transform="rotate(330) translate(260,0)"/>
            <use href="#bead" transform="rotate(336) translate(260,0)"/>
            <use href="#bead" transform="rotate(342) translate(260,0)"/>
            <use href="#bead" transform="rotate(348) translate(260,0)"/>
            <use href="#bead" transform="rotate(354) translate(260,0)"/>
          </g>
        </g>
      </g>
    </g>
  </g>

  <!-- Inner ring -->
  <circle cx="300" cy="300" r="210" fill="none" stroke="#888" stroke-width="2"/>

  <!-- Arced top text path -->
  <defs>
    <path id="topArc" d="M 120 300 A 180 180 0 0 1 480 300" />
    <path id="bottomArc" d="M 480 300 A 180 180 0 0 1 120 300" />
  </defs>

  <!-- Top text: REALM OF DEEP INSIGHTS -->
  <text fill="#e6e6e6" font-family="sans-serif" font-size="22" letter-spacing="2">
    <textPath href="#topArc" startOffset="50%" text-anchor="middle">
      REALM OF DEEP INSIGHTS
    </textPath>
  </text>

  <!-- Bottom text: FINITO MAYE -->
  <text fill="#e6e6e6" font-family="sans-serif" font-size="28" font-weight="700" letter-spacing="3">
    <textPath href="#bottomArc" startOffset="50%" text-anchor="middle">
      FINITO MAYE
    </textPath>
  </text>

  <!-- Central crescents -->
  <g transform="translate(300,300)">
    <!-- Left crescent -->
    <path d="M -60 0 A 60 60 0 1 0 0 0 A 40 40 0 1 1 -60 0 Z" fill="#e6e6e6" opacity="0.9"/>
    <!-- Right crescent (mirror) -->
    <g transform="scale(-1,1)">
      <path d="M -60 0 A 60 60 0 1 0 0 0 A 40 40 0 1 1 -60 0 Z" fill="#e6e6e6" opacity="0.9"/>
    </g>
  </g>

  <!-- Central FM -->
  <text x="300" y="320" fill="#ffffff" font-family="serif" font-size="96" font-weight="700" text-anchor="middle">
    FM
  </text>
</svg>
